<?xml version="1.0" encoding="utf-8"?>
<!-- Generator: Adobe Illustrator 24.2.0, SVG Export Plug-In . SVG Version: 6.00 Build 0)  -->
<svg version="1.1" id="图层_1" xmlns="http://www.w3.org/2000/svg" xmlns:xlink="http://www.w3.org/1999/xlink" x="0px" y="0px"
	 viewBox="0 0 200 195.6" style="enable-background:new 0 0 200 195.6;" xml:space="preserve">
<style type="text/css">
	.st0{fill:#DBDBDB;}
</style>
<path class="st0" d="M144.3,18.2H64.8C39.4,18.2,34.5,24,34.5,48h0.9H35c-6.7,0-8.4,5.3-8.4,12c0,6.7,1.8,12,8.4,12v16.9V88
	c-6.7,0-8.4,5.3-8.4,12c0,6.7,1.8,12,8.4,12v-1.3v18.2v-1.8c-6.7,0-8.4,5.3-8.4,12c0,6.7,0.4,13.3,7.1,13.3H35
	c0,20.9,4.9,24.9,30.2,24.9h79.6c22.2,0,29.3-5.3,29.3-26.2V47.6C173.7,22.7,167,18.2,144.3,18.2L144.3,18.2z M131.9,107.1
	c4.4,0,6.7,2.2,6.7,6.7s-2.2,7.1-7.6,7.1c-3.1,0-17.8-0.4-17.8-0.4v15.1c0,4.4-4,5.3-8.4,5.3c-4.4,0-8.4-0.9-8.4-5.3v-15.1H78.1
	c-4.4,0-6.7-2.2-6.7-6.7v-1.3c0.4-4,2.7-5.3,6.7-5.3h18.2V96.9H78.1c-3.1,0-6.2-0.9-6.2-8c0-4.4,2.7-7.1,7.1-7.1h14.2l-9.8-8.9
	L79,68.5c-3.1-3.1-3.1-7.6-0.4-10.7c0,0,0-0.4,0.4-0.4c3.1-3.1,8-3.1,11.1,0l0.4,0.4L104.8,72l15.1-15.1c3.1-3.1,8-3.1,11.1,0
	c3.1,3.1,3.1,8,0,11.1l-13.3,13.3h14.2c4.4,0,7.1,2.7,7.1,7.1s-2.2,8-6.7,8h-18.2v10.2L131.9,107.1z"/>
</svg>
