<svg t="1646726638401" class="icon" viewBox="0 0 1024 1024" version="1.1" xmlns="http://www.w3.org/2000/svg" p-id="37380" width="200" height="200"><path d="M391.966253 220.590979c93.838934 0 169.868219-25.489375 169.868219-57.049391 0-31.450305-76.029285-56.976251-169.868219-56.976251-93.802364 0-169.868219 25.489375-169.868219 56.976251 0 31.560016 76.065855 57.049391 169.868219 57.049391z m0-220.590979c216.495125 0 391.995143 73.249955 391.995143 163.541588v696.880254c0 90.328203-175.500018 163.578158-391.995143 163.578158C175.471128 1023.96343 0.00768 950.713475 0.00768 860.385272V163.541588C0.00768 73.213385 175.507698 0 391.966253 0z m600.371701 244.032427c22.746616 0 38.032927 23.404878 28.963537 44.249849l-97.349666 223.809149a120.059712 120.059712 0 0 0 0 95.850291l97.349666 223.77258a31.596586 31.596586 0 0 1-28.963537 44.249848h-167.344881V244.032427h167.344881z" p-id="37381"></path></svg>