<svg t="1646722460732" class="icon" viewBox="0 0 1024 1024" version="1.1" xmlns="http://www.w3.org/2000/svg" p-id="36053" width="200" height="200"><path d="M597.650286 502.528a342.528 342.528 0 0 1 74.130285 212.845714v17.334857h-27.904c4.681143 8.923429 7.606857 18.907429 7.606858 29.622858 0 11.264-3.181714 21.686857-8.301715 30.902857h28.598857v17.371428c0 57.782857-14.628571 99.547429-38.948571 129.828572l1.243429 15.725714h311.478857l50.102857-680.777143H1024V217.709714h-210.029714C814.994286 110.409143 736.548571 22.162286 627.126857 21.577143c-23.771429-0.146286-23.771429 36.790857 0 36.900571 89.819429 0.475429 150.601143 72.009143 149.942857 159.195429h-226.084571V275.382857h28.416l18.285714 227.145143z m18.468571 230.180571H31.195429c-6.692571 8.118857-10.898286 18.322286-10.898286 29.622858 0 11.885714 4.608 22.674286 11.922286 30.902857h589.970285c7.314286-8.265143 11.885714-19.017143 11.885715-30.902857 0-11.300571-4.169143-21.540571-10.861715-29.622858h-7.094857z m-288.914286 269.677715c137.362286 0 254.902857-6.473143 303.396572-88.978286 15.323429-26.002286 23.771429-59.501714 23.771428-102.802286H0c0 180.699429 146.505143 191.780571 327.204571 191.780572z m-289.206857-287.012572h616.411429a325.485714 325.485714 0 0 0-54.125714-180.077714 326.765714 326.765714 0 0 0-273.078858-147.126857A327.204571 327.204571 0 0 0 0 715.337143h38.034286z" p-id="36054"></path></svg>