<svg t="1646794803837" class="icon" viewBox="0 0 1024 1024" version="1.1" xmlns="http://www.w3.org/2000/svg" p-id="3222" width="200" height="200"><path d="M948.148148 620.468148H257.517037c-7.35763 0-14.980741 2.010074-22.983111 5.992296-7.964444 3.982222-15.473778 10.012444-22.452148 17.976889-6.97837 8.00237-12.629333 17.483852-16.952889 28.482371-4.323556 10.998519-6.485333 23.514074-6.485333 37.470815 0 13.994667 1.820444 26.965333 5.461333 38.987851 3.678815 11.984593 8.495407 22.641778 14.487704 31.971556 5.992296 9.291852 13.274074 16.649481 21.959111 21.997037 8.647111 5.30963 17.976889 7.964444 27.951407 7.964444H948.148148a139.339852 139.339852 0 0 1-20.973037-26.965333c-5.30963-8.685037-10.126222-19.000889-14.449778-30.985481a120.263111 120.263111 0 0 1-6.485333-40.96c0-17.332148 2.161778-31.630222 6.447407-42.970074 4.361481-11.339852 9.178074-20.66963 14.487704-27.989334A104.296296 104.296296 0 0 1 948.148148 620.468148z m0 272.763259c0 11.339852-7.319704 16.990815-21.959111 16.990815H196.608c-22.603852 0-41.566815-4.664889-56.888889-13.994666a109.150815 109.150815 0 0 1-37.432889-38.456889c-9.633185-16.308148-16.459852-35.802074-20.48-58.443852A420.333037 420.333037 0 0 1 75.851852 726.395259V146.887111C75.851852 95.573333 89.505185 58.405926 116.773926 35.460741 144.080593 12.515556 182.992593 0.986074 233.547852 0.986074h194.597926c33.943704 0 68.721778-0.151704 104.296296-0.493037C568.13037 0.151704 602.832593 0 636.776296 0H835.356444c18.659556 0 34.929778 3.830519 48.924445 11.491556 13.956741 7.661037 25.6 18.318222 34.891852 31.971555 9.329778 13.653333 16.497778 29.809778 21.504 48.469333 4.968296 18.62163 7.471407 38.608593 7.471407 59.922963v404.66963c-127.051852 0-241.512296-0.341333-343.343407-0.986074H477.108148c-42.590815 0-80.668444-0.18963-114.270815-0.530963-33.60237-0.303407-61.402074-0.493037-83.361185-0.493037h-36.901926c-13.994667 0-27.610074 4.171852-40.96 12.515556-13.274074 8.343704-25.258667 19.64563-35.915852 33.943703-10.619259 14.336-19.26637 30.985481-25.941333 49.986371a178.441481 178.441481 0 0 0-9.974518 59.429926c0 25.296593 3.489185 48.128 10.467555 68.456296 7.016296 20.29037 16.156444 37.470815 27.45837 51.427555 11.301926 14.032593 23.779556 24.841481 37.432889 32.502519 13.653333 7.661037 27.117037 11.491556 40.429037 11.491555h681.642667c5.30963 0 10.164148 1.517037 14.487704 4.47526 4.323556 3.034074 6.485333 7.850667 6.485333 14.487703zM517.992296 0v386.654815l76.837926-107.899259 75.851852 107.899259V0h-152.689778z"  p-id="3223"></path></svg>