<svg t="1646726459821" class="icon" viewBox="0 0 1187 1024" version="1.1" xmlns="http://www.w3.org/2000/svg" p-id="36981" width="200" height="200"><path d="M944.66048 293.4784C744.2432 250.51136 744.2432 386.53952 593.92 386.53952c-150.3232 0-150.3232-143.1552-350.74048-93.06112-200.41728 50.09408-300.6464 708.64896-150.3232 708.64896s250.51136-186.12224 501.06368-186.12224c250.51136 0 350.74048 186.12224 501.06368 186.12224s50.09408-658.55488-150.3232-708.64896z m-493.89568 372.20352H357.70368v93.06112H257.47456v-93.06112H164.4544v-93.02016h93.02016v-93.06112h93.06112v93.06112h100.22912v93.02016zM880.2304 737.28c-64.43008 0-121.6512-50.09408-121.6512-121.6512 0-71.59808 57.22112-114.56512 121.6512-114.56512 64.43008 0 121.69216 50.09408 121.69216 121.6512 0 71.59808-57.26208 114.56512-121.6512 114.56512z"  p-id="36982"></path><path d="M593.92 314.9824c21.46304 0 42.96704-7.168 64.43008-14.336a142.9504 142.9504 0 0 1-14.336-64.43008V186.12224c0-50.13504 42.96704-93.06112 93.06112-93.06112h193.29024V0H715.5712c-93.06112 0-171.78624 78.72512-171.78624 171.78624v64.43008a142.9504 142.9504 0 0 1-14.336 64.43008c21.46304 14.336 42.96704 14.336 64.43008 14.336z"  p-id="36983"></path></svg>