<svg t="1646794504579" class="icon" viewBox="0 0 1194 1024" version="1.1" xmlns="http://www.w3.org/2000/svg" p-id="2844" width="200" height="200"><path d="M597.338453 186.026667L170.671787 557.141333V938.666667c0 42.666667 42.666667 85.333333 85.333333 85.333333h682.666667c42.666667 0 85.333333-42.666667 85.333333-85.333333v-381.525334L597.338453 186.026667zM725.338453 896h-256v-213.333333a85.333333 85.333333 0 0 1 85.333334-85.333334h85.333333a85.333333 85.333333 0 0 1 85.333333 85.333334v213.333333z m466.56-370.688c-6.4 17.664-22.954667 29.354667-41.6 29.354667h-64.085333L597.338453 129.493333 108.463787 554.666667H44.378453c-18.645333 0-35.2-11.690667-41.6-29.354667a45.354667 45.354667 0 0 1 12.757334-49.834667L535.471787 22.912C552.96512 7.68 575.151787 0 597.338453 0c22.186667 0 44.373333 7.68 61.866667 22.912L810.671787 154.752V85.333333a42.666667 42.666667 0 0 1 42.666666-42.666666h42.666667a42.666667 42.666667 0 0 1 42.666667 42.666666v180.821334l240.469333 209.322666c14.165333 12.245333 19.2 32.128 12.757333 49.834667z" p-id="2845"></path></svg>