<svg t="1646794342089" class="icon" viewBox="0 0 1024 1024" version="1.1" xmlns="http://www.w3.org/2000/svg" p-id="2059" width="200" height="200"><path d="M853.942857 150.528h-58.002286V64.073143C795.940571 28.818286 758.052571 0 711.68 0H312.32C265.947429 0 228.022857 28.818286 228.022857 64.073143v86.454857H170.057143A152.649143 152.649143 0 0 0 17.846857 302.738286v569.051428A152.649143 152.649143 0 0 0 170.057143 1024h683.885714a152.649143 152.649143 0 0 0 152.173714-152.210286V302.738286a152.649143 152.649143 0 0 0-152.173714-152.210286z m-132.681143 490.24a50.870857 50.870857 0 0 1-50.724571 50.724571h-71.68v71.68a50.870857 50.870857 0 0 1-50.724572 50.724572h-72.265142a50.870857 50.870857 0 0 1-50.724572-50.724572v-71.68h-71.68a50.870857 50.870857 0 0 1-50.688-50.724571v-72.301714a50.870857 50.870857 0 0 1 50.724572-50.724572h71.68v-71.643428a50.870857 50.870857 0 0 1 50.761142-50.724572h72.228572a50.870857 50.870857 0 0 1 50.724571 50.724572v71.68h71.68a50.870857 50.870857 0 0 1 50.688 50.688v72.301714z m0.987429-490.24H301.750857v-50.468571c0-23.442286 25.307429-42.715429 56.210286-42.715429h308.077714c30.902857 0 56.173714 19.2 56.173714 42.715429l0.036572 50.468571z" p-id="2060"></path></svg>