<svg t="1646726267569" class="icon" viewBox="0 0 1060 1024" version="1.1" xmlns="http://www.w3.org/2000/svg" p-id="36317" width="200" height="200"><path d="M364.397714 806.912c12.982857 0 25.234286 2.377143 36.864 7.168a91.428571 91.428571 0 0 1 30.208 19.968c8.521143 8.521143 15.36 18.614857 20.48 30.208 5.12 11.593143 7.68 23.881143 7.68 36.864s-2.56 25.234286-7.68 36.864c-5.12 11.593143-11.958857 21.686857-20.48 30.208-8.521143 8.521143-18.614857 15.36-30.208 20.48a90.331429 90.331429 0 0 1-36.864 7.68c-13.641143 0-26.294857-2.56-37.888-7.68a98.450286 98.450286 0 0 1-30.208-20.48 98.450286 98.450286 0 0 1-20.48-30.208 90.331429 90.331429 0 0 1-7.68-36.864c0-12.982857 2.56-25.234286 7.68-36.864 5.12-11.593143 11.958857-21.686857 20.48-30.208a91.428571 91.428571 0 0 1 30.208-19.968c11.593143-4.754286 24.246857-7.168 37.888-7.168z m425.984 2.048c12.982857 0 25.417143 2.377143 37.376 7.168 11.958857 4.754286 22.198857 11.446857 30.72 19.968 8.521143 8.521143 15.36 18.614857 20.48 30.208 5.12 11.593143 7.68 23.881143 7.68 36.864s-2.56 25.234286-7.68 36.864c-5.12 11.593143-11.958857 21.686857-20.48 30.208-8.521143 8.521143-18.761143 15.36-30.72 20.48a93.915429 93.915429 0 0 1-74.24 0 98.450286 98.450286 0 0 1-30.208-20.48 98.450286 98.450286 0 0 1-20.48-30.208 90.331429 90.331429 0 0 1-7.68-36.864c0-12.982857 2.56-25.234286 7.68-36.864 5.12-11.593143 11.958857-21.686857 20.48-30.208a91.428571 91.428571 0 0 1 30.208-19.968c11.593143-4.754286 23.881143-7.168 36.864-7.168z m172.032-581.632c19.126857 0 33.974857 2.56 44.544 7.68 10.605714 5.12 18.102857 11.446857 22.528 18.944 4.425143 7.497143 6.473143 15.542857 6.144 24.064-0.365714 8.521143-1.536 15.872-3.584 22.016-2.048 6.144-6.473143 18.761143-13.312 37.888s-14.153143 40.118857-22.016 62.976c-7.862857 22.857143-15.725714 45.568-23.552 68.096a3382.345143 3382.345143 0 0 1-18.944 53.248c-8.886857 27.318857-19.968 46.262857-33.28 56.832-13.312 10.605714-29.878857 15.872-49.664 15.872h-537.6l14.336 92.16h517.12c32.768 0 49.152 14.006857 49.152 41.984 0 13.641143-3.254857 25.417143-9.728 35.328-6.473143 9.874286-19.273143 14.848-38.4 14.848H329.581714c-13.641143 0-25.088-3.072-34.304-9.216a77.714286 77.714286 0 0 1-23.04-24.064 146.285714 146.285714 0 0 1-14.848-32.256 294.765714 294.765714 0 0 1-8.704-32.768c-0.694857-4.096-2.56-14.006857-5.632-29.696-3.072-15.725714-6.838857-35.328-11.264-58.88a491272.228571 491272.228571 0 0 1-31.232-166.4c-12.982857-68.937143-27.648-145.737143-44.032-230.4h-76.8c-10.24 0-18.761143-2.56-25.6-7.68a66.852571 66.852571 0 0 1-16.896-18.432 70.948571 70.948571 0 0 1-9.216-23.04 111.177143 111.177143 0 0 1-2.56-22.528c0-13.641143 4.608-24.905143 13.824-33.792S60.964571 76.8 76.653714 76.8h103.424c13.641143 0 24.576 2.048 32.768 6.144 8.192 4.096 14.665143 9.216 19.456 15.36 4.754286 6.144 8.192 12.617143 10.24 19.456 2.048 6.838857 3.766857 12.617143 5.12 17.408 1.353143 5.485714 2.742857 13.165714 4.096 23.04l4.096 30.208c2.048 12.288 4.096 25.234286 6.144 38.912h700.416z m-76.8-32.768H510.829714l135.168-135.168c15.725714-15.725714 32.914286-23.734857 51.712-24.064 18.761143-0.365714 36.022857 7.314286 51.712 23.04l136.192 136.192z" fill="#D6D6D6" p-id="36318"></path></svg>