<svg t="1646794407925" class="icon" viewBox="0 0 1099 1024" version="1.1" xmlns="http://www.w3.org/2000/svg" p-id="2319" width="200" height="200"><path d="M1029.195852 207.606519c-15.625481-7.812741-25.031111-25.031111-23.476148-43.842371 3.830519-45.131852-10.922667-51.730963-20.328297-64.246518-9.367704-12.515556-57.15437-13.994667-72.817777-18.697482-15.625481-4.664889-26.168889-61.364148-44.562963-75.093333-19.190519-14.298074-68.873481-3.147852-92.34963 48.507259-23.514074 51.655111 0 181.551407 0 181.551407-2.768593 19.949037-36.02963 9.367704-36.02963 9.367704-70.390519-18.773333-126.369185-9.367704-126.369185-9.367704-108.468148 15.54963-182.234074 58.026667-232.220444 111.502223-95.118222 88.367407-116.811852 205.179259-117.494519 246.784-1.21363 72.931556 24.651852 123.259259 13.69126 137.329777-1.554963 10.998519-49.531259-6.371556-122.083556-9.367703C67.356444 718.317037 17.445926 762.69037 19.000889 779.946667c1.554963 17.21837 36.02963 28.178963 51.655111 35.991703 15.625481 7.812741 25.031111 25.031111 23.476148 43.804445-3.792593 45.131852 10.922667 51.768889 20.328296 64.284444 9.367704 12.515556 57.15437 13.956741 72.817778 18.697482 15.625481 4.664889 26.168889 61.364148 44.562963 75.093333 19.190519 14.298074 68.873481 3.147852 92.34963-48.545185 23.514074-51.579259 0-181.513481 0-181.513482 2.768593-19.949037 36.02963-9.40563 36.029629-9.405629 70.390519 18.773333 126.369185 9.40563 126.369186 9.405629 108.544-15.54963 182.272-58.064593 232.25837-111.578074 95.080296-88.367407 116.736-205.103407 117.456593-246.708148 1.21363-72.931556-24.651852-123.259259-13.69126-137.367704 1.554963-10.960593 49.531259 6.371556 122.083556 9.40563 87.836444 3.640889 137.709037-40.694519 136.154074-57.912889-1.517037-17.21837-36.02963-28.178963-51.655111-36.029629z" fill="#D6D6D6" p-id="2320"></path></svg>