<svg t="1646726357515" class="icon" viewBox="0 0 1024 1024" version="1.1" xmlns="http://www.w3.org/2000/svg" p-id="36581" width="200" height="200"><path d="M896.804723 732.358045v51.081649c0 16.305168-1.772301 30.52296-5.316902 42.574606-3.544602 12.051646-9.924885 21.661455-19.14085 28.750659-9.255349 7.089204-23.079296 10.633805-41.511225 10.633805v66.008361c0 18.431929-6.577205 34.225099-19.692232 47.340126a64.590521 64.590521 0 0 1-47.37951 19.692232c-18.471314 0-34.067561-6.537821-46.867512-19.692232a65.496363 65.496363 0 0 1-19.140849-47.340126v-66.008361H297.53072v66.008361c0 18.431929-6.380283 34.225099-19.140849 47.340126-12.799951 13.154411-28.396198 19.692232-46.867512 19.692232a64.590521 64.590521 0 0 1-47.340126-19.692232 64.590521 64.590521 0 0 1-19.692232-47.340126v-66.008361c-17.723009 0-31.23188-3.544602-40.447844-10.633805a54.547483 54.547483 0 0 1-19.180234-28.750659 162.421529 162.421529 0 0 1-5.828901-42.062608A2332.741797 2332.741797 0 0 1 98.48164 732.358045V133.044658c0-18.431929 3.544602-35.64294 10.633805-51.593648A138.357622 138.357622 0 0 1 179.928711 10.637744 125.63644 125.63644 0 0 1 231.522359 0.003938h532.241645c18.431929 0 35.64294 3.544602 51.593648 10.633806A138.357622 138.357622 0 0 1 886.170918 81.45101c7.089204 15.950708 10.633805 33.161719 10.633805 51.593648v599.313387zM362.475701 65.972915a31.862031 31.862031 0 0 0-23.433756 9.60981 31.862031 31.862031 0 0 0-9.570424 23.433756c0 9.924885 3.150757 18.077469 9.570424 24.457752 6.380283 6.380283 14.178407 9.570425 23.433756 9.570425h270.374345a31.862031 31.862031 0 0 0 23.394372-9.570425 33.161719 33.161719 0 0 0 9.570424-24.457752 31.862031 31.862031 0 0 0-9.570424-23.433756 31.862031 31.862031 0 0 0-23.394372-9.570425H362.475701z m-100.036538 677.018935c13.469487 0 24.96975-4.804905 34.579559-14.375329 9.570425-9.570425 14.335945-21.110073 14.335945-34.57956 0-13.508871-4.76552-25.048519-14.335945-34.618943a47.143203 47.143203 0 0 0-34.618943-14.37533c-14.178407 0-25.875593 4.804905-35.130942 14.37533a48.049046 48.049046 0 0 0-13.823947 34.618943c0 13.469487 4.607982 25.009135 13.823947 34.57956 9.255349 9.570425 20.952535 14.375329 35.130942 14.375329zM728.633062 740.825705c12.760566 0 23.630678-4.607982 32.452799-13.863332 8.900889-9.215965 13.311949-20.20423 13.311948-32.964796 0-12.799951-4.41106-23.788216-13.311948-33.004181a43.32291 43.32291 0 0 0-32.452799-13.863331c-13.469487 0-24.654674 4.647367-33.516179 13.863331a45.961669 45.961669 0 0 0-13.311948 33.004181c0 12.760566 4.41106 23.748832 13.311948 32.964796 8.861504 9.255349 20.046692 13.863331 33.516179 13.863332z m102.202684-541.81207H164.450617v266.120822h666.385129V199.053019z" fill="#D6D6D6" p-id="36582"></path></svg>