<?xml version="1.0" standalone="no"?><!DOCTYPE svg PUBLIC "-//W3C//DTD SVG 1.1//EN" "http://www.w3.org/Graphics/SVG/1.1/DTD/svg11.dtd"><svg class="icon" width="200px" height="200.00px" viewBox="0 0 1024 1024" version="1.1" xmlns="http://www.w3.org/2000/svg"><path d="M872.8 381.3c-90.3-3.2-178.2 67.2-206.3 172.2-28.1 104.8 12.7 209.6 92.3 252.1 58.3-48.9 102.9-115.3 124-194.2C903.6 534.3 899.6 454.7 872.8 381.3z"  /><path d="M604.7 536.8C634.7 425.1 719.5 344.5 816 323c13.5-3 19.1-18.9 11.2-30.3C775.5 218.2 700 164.8 611.4 141.1c-89-23.9-181.5-15.2-263.8 24-12.1 5.8-14.1 22.3-4.2 31.4 72.8 66.9 105.8 179 75.9 290.7-29.9 111.7-114.6 192.2-211.1 213.8-13.4 3-19.1 18.9-11.2 30.2 50 72 124.6 127.4 215.7 151.8 33.2 8.9 66.5 13.1 99.3 13.1 57.2 0 112.7-13.1 163-36.8 12.7-6 15.7-22.5 5.4-32C607.8 760.3 574.8 648.4 604.7 536.8z"  /><path d="M357.5 470.6c28.1-104.9-12.8-209.8-92.6-252.2C205 268.6 161.7 335.5 141.1 412.6c-21.1 78.9-15.8 158.7 10.3 230.2C241.6 645.8 329.4 575.4 357.5 470.6z"  /></svg>